<svg id="4d7c0a1d-6029-4150-9bb3-7ab7000db3ea" data-name="Layer 1" xmlns="http://www.w3.org/2000/svg" viewBox="0 0 2762.1005 788.1626"><title>oer-logo-horizontal-final</title><path d="M1441.9127,344.554a14.509,14.509,0,0,0-5.4095,11.7886c0,4.8821,2.1944,8.7776,6.6172,11.6525q6.6087,4.3378,30.5176,10.2236,23.9344,5.8943,37.1518,17.6573,13.2175,11.7886,13.2175,34.3791,0,22.6075-16.9429,36.6585-16.9684,14.06-44.6026,14.068-39.9076,0-71.8711-29.565l22.3523-27.4046q27.1749,23.8068,50.25,23.7983,10.3341,0,16.2114-4.4569a14.2489,14.2489,0,0,0,5.9028-12.01,14.036,14.036,0,0,0-6.26-12.0267q-6.2515-4.44-24.7509-9.0158-29.3438-6.966-42.9185-18.1506-13.5747-11.1762-13.5747-35.0935,0-23.9088,17.181-36.8967,17.198-12.9878,42.9185-12.9793a103.21,103.21,0,0,1,33.6476,5.7667,90.0488,90.0488,0,0,1,29.3268,16.3475L1501.8932,356.7q-21.893-16.5856-45.198-16.5856Q1447.3307,340.1142,1441.9127,344.554Z"/><path d="M1658.3937,445.8881q27.6342,0,45.181-21.876l24.0534,24.7509q-28.6294,32.2272-67.4313,32.2187-38.8359,0-63.944-24.5127-25.1336-24.5212-25.1251-61.9027,0-37.3815,25.6014-62.396,25.5929-24.9805,62.6172-24.989,41.3365,0,69.2344,31.4872l-23.322,26.452q-17.7849-22.1227-44.2284-22.1312-21.1531,0-36.1822,13.83t-15.0206,37.2539q0,23.45,14.1871,37.6281A46.8018,46.8018,0,0,0,1658.3937,445.8881Z"/><path d="M1886.7652,311.0255h37.4921V479.0593h-37.4921V412.9549h-66.8359v66.1044H1782.42V311.0255h37.5091v70.187h66.8359v-70.187Z"/><path d="M2111.9982,311.0255V344.435h-83.66v34.6172h75.2563v31.9805h-75.2563v34.8554h86.3134v33.1713H1990.838V311.0255h121.16Z"/><path d="M2323.7841,373.2855L2278.365,465.11h-22.3523l-45.215-91.8249V479.0593h-37.4921V311.0255h50.7265l43.2758,92.3012,43.5139-92.3012h50.4544V479.0593h-37.4921V373.2855Z"/><path d="M2547.58,479.0593l-15.616-36.3013h-70.4252l-15.65,36.3013h-39.9076l72.6026-168.0338h36.3013l72.6026,168.0338H2547.58Zm-50.7265-118.0387-21.1276,48.8043h42.051Z"/><path d="M369.6142,633.3586c-132.1338,0-239.6354-107.5016-239.6354-239.6354S237.48,154.0878,369.6142,154.0878,609.25,261.5894,609.25,393.7232,501.748,633.3586,369.6142,633.3586Zm0-369.7232A130.0878,130.0878,0,1,0,499.702,393.7232,130.2358,130.2358,0,0,0,369.6142,263.6354Z"/><path d="M978.9661,393.73l-109.5476-.0134c0.0134-132.1338,107.5284-239.6287,239.6488-239.6287V263.6354C1037.3371,263.6354,978.9794,321.9931,978.9661,393.73Z"/><path d="M739.3307,633.3586c-132.1338,0-239.6287-107.5016-239.6287-239.6354S607.1969,154.0878,739.3307,154.0878,978.9661,261.5894,978.9661,393.7232H869.4185A130.2358,130.2358,0,0,0,739.3307,263.6354c-71.73,0-130.0811,58.3576-130.0811,130.0878S667.6006,523.811,739.3307,523.811V633.3586Z"/><rect x="869.4185" y="393.7232" width="109.5476" height="130.0878"/><rect x="684.5569" y="338.9494" width="294.4092" height="109.5476"/><rect x="1242.3309" y="86.0879" width="14" height="615.271"/></svg>