<svg id="2937c609-41e3-4347-8f48-891956c78e99" data-name="Layer 1" xmlns="http://www.w3.org/2000/svg" viewBox="0 0 1240.1345 946"><title>oer-logo-final</title><path d="M190.8238,750.8273a11.4057,11.4057,0,0,0-4.2525,9.2671,10.4354,10.4354,0,0,0,5.2019,9.16q5.1952,3.41,23.99,8.0369,18.8151,4.6336,29.2056,13.8807,10.39,9.2671,10.39,27.0258,0,17.7721-13.319,28.8178-13.3391,11.0524-35.0627,11.0591-31.3719,0-56.4989-23.2414L168.05,813.29q21.3626,18.7148,39.5024,18.7081,8.1238,0,12.744-3.5036a11.2013,11.2013,0,0,0,4.64-9.441,11.0339,11.0339,0,0,0-4.9211-9.4544q-4.9144-3.49-19.457-7.0874-23.0676-5.476-33.7388-14.2685-10.6713-8.7857-10.6713-27.5875,0-18.7951,13.5062-29.005,13.52-10.21,33.7388-10.2032a81.1349,81.1349,0,0,1,26.4508,4.5333,70.7886,70.7886,0,0,1,23.0542,12.851l-14.9237,21.5431q-17.21-13.0382-35.5308-13.0382Q195.0829,747.337,190.8238,750.8273Z"/><path d="M361.0023,830.4873q21.7236,0,35.5174-17.197l18.9087,19.457q-22.5059,25.3342-53.0086,25.3275-30.5294,0-50.2673-19.27-19.7579-19.2765-19.7512-48.6626,0-29.3861,20.1256-49.05,20.1189-19.6375,49.2242-19.6442,32.4952,0,54.4261,24.7525l-18.3337,20.7943q-13.981-17.3909-34.7685-17.3976a40.5244,40.5244,0,0,0-28.4433,10.8719q-11.8146,10.8719-11.8079,29.2858,0,18.434,11.1527,29.58A36.7915,36.7915,0,0,0,361.0023,830.4873Z"/><path d="M540.5283,724.47h29.473V856.5637h-29.473V804.5981H487.9877v51.9656H458.5013V724.47h29.4864v55.175h52.5406V724.47Z"/><path d="M717.587,724.47v26.2636H651.821v27.2131h59.16v25.14h-59.16v27.4h67.8521v26.0764H622.3413V724.47H717.587Z"/><path d="M884.0747,773.4134L848.37,845.5982H830.7987l-35.5441-72.1848v83.15h-29.473V724.47h39.8768l34.02,72.5592L873.8849,724.47h39.6629V856.5637h-29.473v-83.15Z"/><path d="M1060.0035,856.5637l-12.276-28.5369H992.3653l-12.3027,28.5369H948.6907L1005.7646,724.47h28.5369l57.0739,132.0937h-31.3719Zm-39.8768-92.7918-16.6087,38.3657h33.0568Z"/><path d="M369.6142,567.196c-132.1338,0-239.6354-107.5016-239.6354-239.6354S237.48,87.9252,369.6142,87.9252,609.25,195.4268,609.25,327.5606,501.748,567.196,369.6142,567.196Zm0-369.7232A130.0878,130.0878,0,1,0,499.702,327.5606,130.2358,130.2358,0,0,0,369.6142,197.4728Z"/><path d="M978.9661,327.5673l-109.5476-.0134C869.4318,195.42,976.9468,87.9252,1109.0672,87.9252V197.4728C1037.3371,197.4728,978.9794,255.83,978.9661,327.5673Z"/><path d="M739.3307,567.196c-132.1338,0-239.6287-107.5016-239.6287-239.6354S607.1969,87.9252,739.3307,87.9252,978.9661,195.4268,978.9661,327.5606H869.4185A130.2358,130.2358,0,0,0,739.3307,197.4728c-71.73,0-130.0811,58.3576-130.0811,130.0878s58.3509,130.0878,130.0811,130.0878V567.196Z"/><rect x="869.4185" y="327.5606" width="109.5476" height="130.0878"/><rect x="684.5569" y="272.7868" width="294.4092" height="109.5476"/></svg>