<svg xmlns="http://www.w3.org/2000/svg" width="948.57959" height="855.92894" viewBox="0 0 948.57959 855.92894">
  <title>powered-by-oerschema-sticker</title>
  <g>
    <g>
      <path d="M474.28985,805.33614a90.94474,90.94474,0,0,1-45.416-12.16992L180.72344,649.89766a91.08226,91.08226,0,0,1-45.416-78.66309v-286.54a91.08226,91.08226,0,0,1,45.416-78.66309L428.87383,62.76094a90.83989,90.83989,0,0,1,90.832,0L767.85625,206.03242a91.07949,91.07949,0,0,1,45.416,78.66211v286.54a91.08226,91.08226,0,0,1-45.416,78.66309L519.70586,793.16719A90.95383,90.95383,0,0,1,474.28985,805.33614Z" style="fill: #333"/>
      <path d="M474.28985,58.59261A82.78014,82.78014,0,0,1,515.70586,69.69L763.85625,212.95979a82.83267,82.83267,0,0,1,41.4165,71.73492V571.23421a82.83284,82.83284,0,0,1-41.4165,71.735L515.70586,786.239a82.83188,82.83188,0,0,1-82.832,0L184.723,642.96919a82.83239,82.83239,0,0,1-41.416-71.735V284.69472a82.83222,82.83222,0,0,1,41.416-71.73492L432.87383,69.69a82.78014,82.78014,0,0,1,41.416-11.09741m0-16.00006a98.96551,98.96551,0,0,0-49.416,13.24109L176.723,199.10335a99.10694,99.10694,0,0,0-49.416,85.59137V571.23421a99.10734,99.10734,0,0,0,49.416,85.59143L424.87383,800.09541a98.83292,98.83292,0,0,0,98.832,0L771.85625,656.82564a99.10839,99.10839,0,0,0,49.4165-85.59143V284.69472a99.1077,99.1077,0,0,0-49.4165-85.59137L523.70586,55.83363a98.96281,98.96281,0,0,0-49.416-13.24109Z" style="fill: #efefef"/>
    </g>
    <g>
      <path d="M135.30743,499.23457v-214.54a91.08226,91.08226,0,0,1,45.416-78.66309L428.87383,62.76192a90.83358,90.83358,0,0,1,90.832,0L767.85625,206.03242a91.07949,91.07949,0,0,1,45.416,78.66211v214.54Z" style="fill: #7c7c7c"/>
      <path d="M474.28985,58.59261A82.77937,82.77937,0,0,1,515.70586,69.69L763.85625,212.95973a82.83284,82.83284,0,0,1,41.4165,71.735V491.23421H143.30694V284.69472a82.83239,82.83239,0,0,1,41.416-71.735L432.87383,69.69a82.77937,82.77937,0,0,1,41.416-11.09735m0-16a98.9641,98.9641,0,0,0-49.416,13.241L176.723,199.10335a99.10716,99.10716,0,0,0-49.416,85.59137V507.23421H821.27276V284.69472a99.10674,99.10674,0,0,0-49.4165-85.59137L523.70586,55.83363a98.96275,98.96275,0,0,0-49.416-13.241Z" style="fill: #efefef"/>
    </g>
    <g>
      <path d="M327.77813,555.5334h12.68555a16.24538,16.24538,0,0,1,5.71289.89355,10.838,10.838,0,0,1,3.91113,2.43164,9.42866,9.42866,0,0,1,2.25586,3.57422,13.40868,13.40868,0,0,1,.01465,8.61328,9.181,9.181,0,0,1-2.19727,3.501,10.61424,10.61424,0,0,1-3.82324,2.373,15.82816,15.82816,0,0,1-5.58105.87891h-6.123v15.11719h-6.85547Zm6.85547,5.94727v10.60547h5.625a7.98859,7.98859,0,0,0,2.666-.39551,5.038,5.038,0,0,0,1.83105-1.084,4.18415,4.18415,0,0,0,1.05469-1.626,6.02336,6.02336,0,0,0,.33691-2.05078,6.4711,6.4711,0,0,0-.35156-2.168,4.64472,4.64472,0,0,0-1.06934-1.72852,4.89494,4.89494,0,0,0-1.81641-1.14258,7.40921,7.40921,0,0,0-2.59277-.41016Z" style="fill: #efefef"/>
      <path d="M384.84844,594.0002a11.779,11.779,0,0,1-5.918-1.47949,13.15341,13.15341,0,0,1-4.40918-4.13086,20.18072,20.18072,0,0,1-2.75391-6.29883,31.43534,31.43534,0,0,1-.95215-7.9541,30.16767,30.16767,0,0,1,.98145-7.93945,19.36537,19.36537,0,0,1,2.8125-6.18164,13.25432,13.25432,0,0,1,4.43848-4.01367,11.94441,11.94441,0,0,1,5.85938-1.43555,12.06344,12.06344,0,0,1,9.74121,4.834,18.67287,18.67287,0,0,1,3.00293,6.123,30.16625,30.16625,0,0,1,1.11328,8.67188,34.18739,34.18739,0,0,1-.55664,6.47461,23.88207,23.88207,0,0,1-1.52344,5.06836,15.51041,15.51041,0,0,1-2.28516,3.76465,12.78579,12.78579,0,0,1-2.87109,2.56348,11.82345,11.82345,0,0,1-3.252,1.46484A12.83489,12.83489,0,0,1,384.84844,594.0002Zm-7.08984-20.21484a31.1564,31.1564,0,0,0,.52734,6.06445,16.18281,16.18281,0,0,0,1.47949,4.42383,7.48383,7.48383,0,0,0,2.25586,2.69531,4.93643,4.93643,0,0,0,2.88574.9082,5.37663,5.37663,0,0,0,2.59277-.67383,5.81786,5.81786,0,0,0,2.18262-2.28516,14.7236,14.7236,0,0,0,1.50879-4.2627,31.88751,31.88751,0,0,0,.57129-6.57715,27.73088,27.73088,0,0,0-.61523-6.32812,14.70053,14.70053,0,0,0-1.582-4.1748,6.38161,6.38161,0,0,0-2.18262-2.2998,4.79708,4.79708,0,0,0-2.417-.70312,6.10329,6.10329,0,0,0-2.73926.64453,5.95816,5.95816,0,0,0-2.2998,2.168,12.647,12.647,0,0,0-1.582,4.05762A28.779,28.779,0,0,0,377.7586,573.78535Z" style="fill: #efefef"/>
      <path d="M415.14141,555.5334h6.5625l2.13867,24.668,4.39453-21.5918h4.30664l4.39453,21.416L438.491,555.5334h6.24023l-4.45312,37.38281h-5.27344l-4.92187-22.73437-4.98047,22.73438h-5.39062Z" style="fill: #efefef"/>
      <path d="M463.159,555.5334h24.3457v5.77148h-17.8125v9.22852h14.76563v5.88867H469.69219v10.72266H487.3875v5.77148H463.159Z" style="fill: #efefef"/>
      <path d="M507.60235,555.5334h11.83594a19.39153,19.39153,0,0,1,5.96191.80566,10.78712,10.78712,0,0,1,4.05762,2.27051,8.71385,8.71385,0,0,1,2.31445,3.51563,13.5154,13.5154,0,0,1,.73242,4.57031,9.76761,9.76761,0,0,1-.5127,3.07617,11.73367,11.73367,0,0,1-1.43555,2.915,10.515,10.515,0,0,1-2.25586,2.40234,9.60906,9.60906,0,0,1-2.94434,1.56738l8.75977,16.25977h-7.55859l-7.73437-15.46875h-4.36523v15.46875h-6.85547Zm6.85547,5.94727v10.25391h5.39063a8.22114,8.22114,0,0,0,2.59277-.36621A4.81823,4.81823,0,0,0,524.243,570.343a4.01452,4.01452,0,0,0,1.04-1.59668,6.02336,6.02336,0,0,0,.33691-2.05078,5.13268,5.13268,0,0,0-1.377-3.92578,6.28494,6.28494,0,0,0-4.39453-1.28906Z" style="fill: #efefef"/>
      <path d="M553.159,555.5334h24.3457v5.77148h-17.8125v9.22852h14.76563v5.88867H559.69219v10.72266H577.3875v5.77148H553.159Z" style="fill: #efefef"/>
      <path d="M597.42657,555.5334h9.668a24.42031,24.42031,0,0,1,4.39453.35156,14.71724,14.71724,0,0,1,3.36914,1.01074,10.70372,10.70372,0,0,1,2.59277,1.626,13.64967,13.64967,0,0,1,2.06543,2.22656,18.39811,18.39811,0,0,1,2.87109,6.02051,31.30062,31.30062,0,0,1,.01465,15.38086,14.80306,14.80306,0,0,1-3.01758,5.80078,13.46036,13.46036,0,0,1-5.28809,3.67676,20.81531,20.81531,0,0,1-7.73437,1.28906h-8.93555Zm6.5332,5.5957v26.51367h2.28516q5.30273,0,7.83691-3.35449t2.53418-9.624a26.92364,26.92364,0,0,0-.542-5.66895,12.13024,12.13024,0,0,0-1.72852-4.2627,7.84327,7.84327,0,0,0-3.03223-2.68066,9.86844,9.86844,0,0,0-4.45312-.92285Z" style="fill: #efefef"/>
    </g>
    <polygon points="488.228 622.917 443.228 682.917 473.228 682.917 458.228 727.917 503.228 667.917 473.228 667.917 488.228 622.917" style="fill: #28e8e8"/>
    <g>
      <g>
        <path d="M492.5824,337.15131a3.19077,3.19077,0,0,0-1.18963,2.5925,2.91933,2.91933,0,0,0,1.45524,2.56258q1.45337.954,6.71133,2.24833a18.94684,18.94684,0,0,1,8.17031,3.88314q2.90675,2.5925,2.90675,7.56053a9.97632,9.97632,0,0,1-3.726,8.06183q-3.73163,3.09192-9.80887,3.0938a22.68981,22.68981,0,0,1-15.80567-6.50183l4.91566-6.02673q5.97623,5.23551,11.05087,5.23364a5.77443,5.77443,0,0,0,3.56516-.98014,3.13357,3.13357,0,0,0,1.29812-2.64114,3.08676,3.08676,0,0,0-1.37668-2.64488,17.95939,17.95939,0,0,0-5.44313-1.98272q-6.4532-1.53193-9.43851-3.99163-2.98531-2.45783-2.98531-7.71765a9.564,9.564,0,0,1,3.7784-8.1142,15.20623,15.20623,0,0,1,9.43851-2.85437,22.69765,22.69765,0,0,1,7.39967,1.26819,19.80324,19.80324,0,0,1,6.44946,3.59509l-4.17494,6.02673a16.2783,16.2783,0,0,0-9.9398-3.64746A4.97813,4.97813,0,0,0,492.5824,337.15131Z" style="fill: #fff"/>
        <path d="M540.19019,359.43636a12.16612,12.16612,0,0,0,9.93606-4.81091l5.28975,5.44313q-6.29608,7.0873-14.82927,7.08543a19.29214,19.29214,0,0,1-14.06237-5.39076,19.53485,19.53485,0,0,1,.10475-27.33539,18.968,18.968,0,0,1,13.77057-5.49551,19.52383,19.52383,0,0,1,15.22581,6.92457l-5.12889,5.81723a12.01522,12.01522,0,0,0-9.72656-4.867,11.33677,11.33677,0,0,0-7.95708,3.04142,10.58915,10.58915,0,0,0-3.30329,8.19276,11.18345,11.18345,0,0,0,3.12,8.27506A10.2925,10.2925,0,0,0,540.19019,359.43636Z" style="fill: #fff"/>
        <path d="M590.41293,329.77783h8.24513v36.95346h-8.24513V352.19382H575.71459v14.53747h-8.24887V329.77783h8.24887v15.43531h14.69833Z" style="fill: #fff"/>
        <path d="M639.94545,329.77783v7.3473H621.54728V344.738h16.55012v7.03305H621.54728v7.66528H640.529v7.29492H613.30028V329.77783Z" style="fill: #fff"/>
        <path d="M686.52073,343.46984l-9.98843,20.19384h-4.91566l-9.94354-20.19384v23.26145H653.428V329.77783h11.15562l9.51707,20.29859,9.56944-20.29859h11.09576v36.95346h-8.24513Z" style="fill: #fff"/>
        <path d="M735.73714,366.73129l-3.43423-7.98326H716.81524l-3.44171,7.98326h-8.77635l15.96653-36.95346H728.547l15.96653,36.95346Zm-11.15562-25.9587-4.6463,10.73289h9.24772Z" style="fill: #fff"/>
      </g>
      <path d="M256.76594,400.66428a52.69985,52.69985,0,1,1,52.69985-52.69985A52.76,52.76,0,0,1,256.76594,400.66428Zm0-81.30834a28.60849,28.60849,0,1,0,28.60849,28.60849A28.641,28.641,0,0,0,256.76594,319.35595Z" style="fill: #fff"/>
      <path d="M390.77265,347.96591l-24.09136-.00294a52.765,52.765,0,0,1,52.70279-52.69838v24.09136A28.64575,28.64575,0,0,0,390.77265,347.96591Z" style="fill: #fff"/>
      <path d="M338.0728,400.66428a52.69985,52.69985,0,1,1,52.69985-52.69985H366.68129a28.60775,28.60775,0,1,0-28.60849,28.60849Z" style="fill: #fff"/>
      <rect x="366.68129" y="347.96444" width="24.09136" height="28.60849" style="fill: #fff"/>
      <rect x="326.02712" y="335.91876" width="64.74553" height="24.09136" style="fill: #fff"/>
      <rect x="448.69099" y="280.31031" width="3.07884" height="135.30832" style="fill: #fff"/>
    </g>
  </g>
</svg>
