<svg xmlns="http://www.w3.org/2000/svg" width="948.57959" height="855.92894" viewBox="0 0 948.57959 855.92894">
  <title>powered-by-oerschema-sticker-variant</title>
  <g>
    <g>
      <path d="M474.29006,805.33614a90.94474,90.94474,0,0,1-45.416-12.16992L180.72268,649.89766a91.08464,91.08464,0,0,1-45.416-78.66309v-286.54a91.08187,91.08187,0,0,1,45.416-78.66211L428.874,62.76094a90.83989,90.83989,0,0,1,90.832,0L767.85646,206.03242a91.07949,91.07949,0,0,1,45.416,78.66211v286.54a91.08226,91.08226,0,0,1-45.416,78.66309L519.70607,793.16719A90.95652,90.95652,0,0,1,474.29006,805.33614Z" style="fill: #333"/>
      <path d="M474.28981,58.59261A82.7797,82.7797,0,0,1,515.70607,69.69L763.85646,212.95979a82.83244,82.83244,0,0,1,41.41626,71.73492V571.23421a82.83262,82.83262,0,0,1-41.41626,71.735L515.70607,786.239a82.83279,82.83279,0,0,1-82.83252,0L184.72316,642.96919a82.83262,82.83262,0,0,1-41.41626-71.735V284.69472a82.83244,82.83244,0,0,1,41.41626-71.73492L432.87355,69.69a82.7797,82.7797,0,0,1,41.41626-11.09741m0-16.00006a98.96438,98.96438,0,0,0-49.41626,13.24109L176.72316,199.10335a99.10721,99.10721,0,0,0-49.41626,85.59137V571.23421a99.10746,99.10746,0,0,0,49.41626,85.59143L424.87355,800.09541a98.83383,98.83383,0,0,0,98.83252,0L771.85646,656.82564a99.1072,99.1072,0,0,0,49.41626-85.59143V284.69472a99.107,99.107,0,0,0-49.41626-85.59137L523.70607,55.83363a98.96438,98.96438,0,0,0-49.41626-13.24109Z" style="fill: #efefef"/>
    </g>
    <g>
      <path d="M135.30666,499.23457v-214.54a91.08187,91.08187,0,0,1,45.416-78.66211L428.874,62.76192a90.83674,90.83674,0,0,1,90.832-.001L767.85646,206.03242a91.07949,91.07949,0,0,1,45.416,78.66211v214.54Z" style="fill: #7c7c7c"/>
      <path d="M474.28981,58.59261A82.78026,82.78026,0,0,1,515.70607,69.69L763.85646,212.95973a82.83262,82.83262,0,0,1,41.41626,71.735V491.23421H143.3069V284.69472a82.83262,82.83262,0,0,1,41.41626-71.735L432.87355,69.69a82.78026,82.78026,0,0,1,41.41626-11.09735m0-16a98.96432,98.96432,0,0,0-49.41626,13.241L176.72316,199.10335a99.10739,99.10739,0,0,0-49.41626,85.59137V507.23421H821.27272V284.69472a99.10739,99.10739,0,0,0-49.41626-85.59137L523.70607,55.83363a98.963,98.963,0,0,0-49.41626-13.241Z" style="fill: #efefef"/>
    </g>
    <polygon points="488.228 582.917 443.228 642.917 473.228 642.917 458.228 687.917 503.228 627.917 473.228 627.917 488.228 582.917" style="fill: #28e8e8"/>
    <g>
      <g>
        <path d="M492.5824,337.15131a3.19077,3.19077,0,0,0-1.18963,2.5925,2.91933,2.91933,0,0,0,1.45524,2.56258q1.45337.954,6.71133,2.24833a18.94684,18.94684,0,0,1,8.17031,3.88314q2.90675,2.5925,2.90675,7.56053a9.97632,9.97632,0,0,1-3.726,8.06183q-3.73163,3.09192-9.80887,3.0938a22.68981,22.68981,0,0,1-15.80567-6.50183l4.91566-6.02673q5.97623,5.23551,11.05087,5.23364a5.77443,5.77443,0,0,0,3.56516-.98014,3.13357,3.13357,0,0,0,1.29812-2.64114,3.08676,3.08676,0,0,0-1.37668-2.64488,17.95939,17.95939,0,0,0-5.44313-1.98272q-6.4532-1.53193-9.43851-3.99163-2.98531-2.45783-2.98531-7.71765a9.564,9.564,0,0,1,3.7784-8.1142,15.20623,15.20623,0,0,1,9.43851-2.85437,22.69765,22.69765,0,0,1,7.39967,1.26819,19.80324,19.80324,0,0,1,6.44946,3.59509l-4.17494,6.02673a16.2783,16.2783,0,0,0-9.9398-3.64746A4.97813,4.97813,0,0,0,492.5824,337.15131Z" style="fill: #fff"/>
        <path d="M540.19019,359.43636a12.16612,12.16612,0,0,0,9.93606-4.81091l5.28975,5.44313q-6.29608,7.0873-14.82927,7.08543a19.29214,19.29214,0,0,1-14.06237-5.39076,19.53485,19.53485,0,0,1,.10475-27.33539,18.968,18.968,0,0,1,13.77057-5.49551,19.52383,19.52383,0,0,1,15.22581,6.92457l-5.12889,5.81723a12.01522,12.01522,0,0,0-9.72656-4.867,11.33677,11.33677,0,0,0-7.95708,3.04142,10.58915,10.58915,0,0,0-3.30329,8.19276,11.18345,11.18345,0,0,0,3.12,8.27506A10.2925,10.2925,0,0,0,540.19019,359.43636Z" style="fill: #fff"/>
        <path d="M590.41293,329.77783h8.24513v36.95346h-8.24513V352.19382H575.71459v14.53747h-8.24887V329.77783h8.24887v15.43531h14.69833Z" style="fill: #fff"/>
        <path d="M639.94545,329.77783v7.3473H621.54728V344.738h16.55012v7.03305H621.54728v7.66528H640.529v7.29492H613.30028V329.77783Z" style="fill: #fff"/>
        <path d="M686.52073,343.46984l-9.98843,20.19384h-4.91566l-9.94354-20.19384v23.26145H653.428V329.77783h11.15562l9.51707,20.29859,9.56944-20.29859h11.09576v36.95346h-8.24513Z" style="fill: #fff"/>
        <path d="M735.73714,366.73129l-3.43423-7.98326H716.81524l-3.44171,7.98326h-8.77635l15.96653-36.95346H728.547l15.96653,36.95346Zm-11.15562-25.9587-4.6463,10.73289h9.24772Z" style="fill: #fff"/>
      </g>
      <path d="M256.76594,400.66428a52.69985,52.69985,0,1,1,52.69985-52.69985A52.76,52.76,0,0,1,256.76594,400.66428Zm0-81.30834a28.60849,28.60849,0,1,0,28.60849,28.60849A28.641,28.641,0,0,0,256.76594,319.35595Z" style="fill: #fff"/>
      <path d="M390.77265,347.96591l-24.09136-.00294a52.765,52.765,0,0,1,52.70279-52.69838v24.09136A28.64575,28.64575,0,0,0,390.77265,347.96591Z" style="fill: #fff"/>
      <path d="M338.0728,400.66428a52.69985,52.69985,0,1,1,52.69985-52.69985H366.68129a28.60775,28.60775,0,1,0-28.60849,28.60849Z" style="fill: #fff"/>
      <rect x="366.68129" y="347.96444" width="24.09136" height="28.60849" style="fill: #fff"/>
      <rect x="326.02712" y="335.91876" width="64.74553" height="24.09136" style="fill: #fff"/>
      <rect x="448.69099" y="280.31031" width="3.07884" height="135.30832" style="fill: #fff"/>
    </g>
  </g>
</svg>
